<?xml version="1.0" encoding="utf-8"?>
<!-- Generator: Adobe Illustrator 27.5.0, SVG Export Plug-In . SVG Version: 6.00 Build 0)  -->
<svg version="1.1" id="Capa_1" xmlns="http://www.w3.org/2000/svg" xmlns:xlink="http://www.w3.org/1999/xlink" x="0px" y="0px"
	 viewBox="0 0 2531 1779" style="enable-background:new 0 0 2531 1779;" xml:space="preserve">
<path style="fill:#8FA6BC;" d="M234.84,853.871h-43.378c-2.556,9.776-4.1,21.997-4.1,35.34c0,3.672,0.128,7.251,0.348,10.733h46.416
	c-0.048-3.569-0.089-7.142-0.089-10.733C234.038,877.292,234.324,865.503,234.84,853.871z"/>
<path style="fill:#A9C7E0;" d="M234.84,853.871c0.336-7.575,0.781-15.071,1.331-22.484h-29.363c-0.734,0-1.458,0.145-2.172,0.382
	c-0.215,0.071-0.424,0.196-0.637,0.289c-0.5,0.217-0.997,0.462-1.484,0.79c-0.227,0.153-0.45,0.339-0.674,0.515
	c-0.475,0.374-0.944,0.787-1.404,1.264c-0.198,0.205-0.393,0.417-0.588,0.64c-0.501,0.574-0.991,1.205-1.471,1.896
	c-0.135,0.194-0.271,0.375-0.403,0.578c-0.604,0.922-1.193,1.914-1.759,3.012c0,0.001-0.001,0.002-0.001,0.003
	c-1.827,3.552-3.441,7.994-4.775,13.115H234.84z"/>
<path style="fill:#768FA3;" d="M202.38,945.471c0.237,0.165,0.474,0.344,0.715,0.483c0.402,0.232,0.812,0.398,1.222,0.555
	c0.203,0.077,0.402,0.185,0.607,0.243c0.62,0.178,1.248,0.283,1.884,0.283h29.363c-1.138-15.365-1.831-31.101-2.044-47.091h-46.416
	h-0.001c0.001,0.008,0.001,0.016,0.002,0.024c0.087,1.366,0.199,2.703,0.317,4.033c0.035,0.391,0.064,0.787,0.102,1.175
	c0.119,1.23,0.257,2.435,0.402,3.631c0.055,0.456,0.108,0.912,0.168,1.362c0.149,1.139,0.311,2.258,0.484,3.361
	c0.074,0.48,0.152,0.955,0.232,1.428c0.178,1.065,0.365,2.114,0.564,3.14c0.092,0.471,0.189,0.93,0.285,1.392
	c0.205,0.996,0.415,1.983,0.642,2.937c0.106,0.452,0.222,0.882,0.333,1.324c0.236,0.938,0.471,1.876,0.724,2.769
	c0.098,0.345,0.206,0.662,0.306,1c0.549,1.846,1.137,3.585,1.761,5.209c0.105,0.273,0.203,0.571,0.309,0.837
	c0.236,0.586,0.486,1.116,0.73,1.669c0.228,0.515,0.452,1.042,0.687,1.528c0.236,0.487,0.482,0.93,0.725,1.385
	c0.261,0.489,0.521,0.976,0.791,1.428c0.24,0.405,0.487,0.777,0.734,1.151c0.289,0.438,0.581,0.862,0.878,1.257
	c0.245,0.326,0.491,0.633,0.741,0.928c0.316,0.374,0.636,0.719,0.96,1.046c0.245,0.246,0.49,0.49,0.739,0.708
	C201.673,944.969,202.025,945.225,202.38,945.471z"/>
<path style="fill:#8FA6BC;" d="M2342.578,899.944c0.228-3.489,0.391-7.045,0.391-10.733c0-13.343-1.543-25.565-4.1-35.34h-54.26
	c0.516,11.632,0.801,23.421,0.801,35.34c0,3.591-0.041,7.164-0.087,10.733H2342.578z"/>
<path style="fill:#282033;" d="M2323.524,821.104h-41.072c-4.007-45.389-12.005-87.086-23.499-121.269
	c-18.499-55.011-43.51-84.089-72.327-84.089h-38.078c-17.595-29.723-38.221-45.622-60.217-45.622h-47.206
	c-16.515-21.522-34.92-32.93-54.274-32.93h-73.072c-0.169,0-0.327,0.042-0.494,0.05c-0.248-0.004-0.492-0.05-0.742-0.05
	c-35.462,0-67.782,38.034-91.006,107.097c-17.287,51.407-28.452,115.996-32.484,185.997H934.448H730.397
	c-4.032-70.001-15.196-134.59-32.483-185.997c-23.224-69.062-55.545-107.097-91.006-107.097c-0.249,0-0.494,0.046-0.743,0.05
	c-0.167-0.008-0.325-0.05-0.494-0.05h-73.071c-19.355,0-37.76,11.409-54.275,32.93H431.12c-21.996,0-42.623,15.9-60.217,45.622
	h-38.079c-28.818,0-53.828,29.078-72.327,84.089c-11.496,34.183-19.493,75.88-23.5,121.269h-30.189
	c-20.536,0-29.728,34.207-29.728,68.107s9.192,68.107,29.728,68.107h30.189c4.007,45.389,12.004,87.086,23.5,121.269
	c18.499,55.011,43.51,84.089,72.327,84.089h38.079c17.593,29.722,38.221,45.622,60.217,45.622h47.204
	c16.515,21.521,34.92,32.93,54.275,32.93h73.071c0.169,0,0.327-0.042,0.494-0.049c0.248,0.004,0.494,0.049,0.743,0.049
	c35.461,0,67.782-38.035,91.006-107.097c17.288-51.407,28.452-115.996,32.483-185.996h204.051h854.605
	c4.031,70.001,15.197,134.59,32.484,185.996c23.224,69.062,55.545,107.097,91.006,107.097c0.249,0,0.493-0.046,0.742-0.049
	c0.167,0.008,0.325,0.049,0.494,0.049h73.072c19.354,0,37.759-11.409,54.274-32.93h47.206c21.996,0,42.623-15.9,60.217-45.622
	h38.078c28.818,0,53.828-29.078,72.327-84.089c11.494-34.183,19.492-75.88,23.499-121.269h41.072
	c20.536,0,29.727-34.206,29.727-68.107S2344.06,821.104,2323.524,821.104z M2329.007,944.666c-0.347,0.303-0.699,0.559-1.054,0.805
	c-0.238,0.165-0.474,0.344-0.715,0.483c-0.402,0.232-0.812,0.398-1.222,0.555c-0.203,0.077-0.402,0.185-0.607,0.243
	c-0.62,0.178-1.248,0.283-1.884,0.283h-40.245c1.138-15.365,1.832-31.101,2.044-47.091c0.046-3.569,0.087-7.142,0.087-10.733
	c0-11.92-0.285-23.709-0.801-35.34c-0.336-7.575-0.782-15.071-1.331-22.484h40.245c0.734,0,1.458,0.145,2.171,0.382
	c0.216,0.071,0.424,0.196,0.638,0.289c0.5,0.216,0.997,0.462,1.484,0.79c0.228,0.153,0.45,0.339,0.674,0.515
	c0.475,0.373,0.944,0.789,1.404,1.264c0.198,0.205,0.393,0.417,0.588,0.64c0.501,0.572,0.99,1.207,1.47,1.896
	c0.134,0.194,0.271,0.375,0.404,0.578c0.604,0.919,1.192,1.917,1.758,3.012c0,0.001,0.002,0.002,0.002,0.003
	c5.325,10.315,8.853,28.147,8.853,48.455c0,5.155-0.249,10.127-0.675,14.883c-0.031,0.35-0.057,0.705-0.09,1.052
	c-0.12,1.253-0.261,2.477-0.409,3.694c-0.053,0.437-0.104,0.876-0.161,1.309c-0.152,1.16-0.317,2.295-0.492,3.417
	c-0.071,0.455-0.146,0.905-0.219,1.354c-0.182,1.084-0.371,2.15-0.574,3.193c-0.088,0.455-0.183,0.898-0.275,1.345
	c-0.21,1.014-0.424,2.018-0.654,2.989c-0.1,0.423-0.208,0.826-0.312,1.241c-0.242,0.963-0.483,1.923-0.743,2.839
	c-0.09,0.317-0.188,0.608-0.28,0.919c-0.576,1.937-1.191,3.763-1.849,5.456c-0.083,0.213-0.158,0.448-0.243,0.657
	c-0.24,0.597-0.494,1.14-0.744,1.703c-0.224,0.503-0.441,1.019-0.672,1.494c-0.239,0.493-0.488,0.941-0.734,1.403
	c-0.259,0.483-0.516,0.965-0.782,1.412c-0.242,0.408-0.492,0.785-0.741,1.162c-0.287,0.434-0.576,0.855-0.871,1.247
	c-0.246,0.327-0.495,0.637-0.746,0.935c-0.315,0.373-0.633,0.715-0.956,1.04C2329.502,944.202,2329.256,944.447,2329.007,944.666z
	 M2211.799,1141.528c-0.836,0.736-1.671,1.46-2.516,2.124c-0.537,0.422-1.079,0.805-1.619,1.197
	c-0.809,0.587-1.622,1.154-2.439,1.674c-0.558,0.355-1.119,0.688-1.681,1.011c-0.819,0.472-1.641,0.906-2.468,1.311
	c-0.562,0.274-1.125,0.544-1.691,0.787c-0.855,0.368-1.716,0.681-2.579,0.975c-0.542,0.184-1.081,0.384-1.624,0.539
	c-0.953,0.272-1.913,0.468-2.875,0.65c-0.46,0.086-0.917,0.208-1.379,0.274c-1.427,0.203-2.86,0.324-4.304,0.324h-32.367
	c6.212-12.039,11.991-25.917,17.247-41.547c15.805-46.997,25.959-106.152,29.514-170.224c0.934-16.847,1.438-34.013,1.438-51.412
	c0-51.737-4.222-101.597-12.168-146.17c-4.889-27.425-11.181-52.857-18.784-75.465c-5.256-15.631-11.035-29.508-17.247-41.547
	h32.367c1.752,0,3.49,0.193,5.218,0.493c0.538,0.093,1.071,0.242,1.606,0.363c1.209,0.274,2.41,0.608,3.604,1.025
	c0.585,0.204,1.168,0.422,1.749,0.66c1.208,0.495,2.406,1.074,3.599,1.712c0.49,0.263,0.982,0.495,1.471,0.781
	c1.663,0.977,3.312,2.06,4.941,3.31c0.073,0.057,0.143,0.127,0.217,0.184c1.554,1.206,3.088,2.556,4.607,4.003
	c0.469,0.447,0.931,0.937,1.397,1.406c1.14,1.15,2.272,2.357,3.391,3.64c0.494,0.566,0.987,1.139,1.477,1.731
	c1.165,1.407,2.315,2.895,3.455,4.444c0.37,0.503,0.745,0.978,1.112,1.495c1.522,2.144,3.022,4.391,4.495,6.781
	c0.037,0.061,0.073,0.128,0.109,0.189c1.413,2.301,2.796,4.735,4.16,7.255c0.358,0.659,0.707,1.346,1.06,2.019
	c1.068,2.035,2.121,4.131,3.156,6.296c0.361,0.756,0.722,1.512,1.08,2.283c1.111,2.398,2.201,4.872,3.273,7.416
	c0.217,0.515,0.44,1.01,0.655,1.532c2.608,6.313,5.086,13.069,7.435,20.211c0.247,0.748,0.485,1.514,0.728,2.271
	c0.924,2.878,1.826,5.815,2.706,8.814c0.251,0.854,0.501,1.705,0.748,2.569c0.956,3.346,1.886,6.757,2.786,10.244
	c0.108,0.419,0.221,0.824,0.329,1.245c1.05,4.12,2.064,8.328,3.032,12.633c0,0.004,0.001,0.006,0.002,0.01l0,0
	c9.41,41.814,14.905,92.079,14.905,146.17c0,17.598-0.592,34.78-1.701,51.412h0c0,0.007,0,0.014-0.001,0.021
	c-0.193,2.885-0.415,5.737-0.638,8.587c-0.087,1.106-0.166,2.221-0.257,3.322c-0.219,2.627-0.459,5.225-0.704,7.82
	c-0.122,1.294-0.242,2.591-0.37,3.877c-0.251,2.509-0.517,4.997-0.792,7.475c-0.146,1.312-0.295,2.62-0.447,3.923
	c-0.287,2.455-0.583,4.895-0.893,7.316c-0.163,1.268-0.333,2.524-0.502,3.781c-0.327,2.436-0.658,4.864-1.008,7.263
	c-0.164,1.125-0.341,2.233-0.51,3.349c-0.382,2.508-0.761,5.015-1.167,7.481c-0.09,0.547-0.189,1.079-0.281,1.623
	c-1.442,8.609-3.044,16.937-4.784,24.977c-0.231,1.068-0.455,2.149-0.692,3.206c-0.456,2.042-0.929,4.044-1.404,6.046
	c-0.292,1.233-0.583,2.471-0.882,3.688c-0.469,1.905-0.949,3.78-1.434,5.645c-0.33,1.268-0.661,2.529-0.998,3.778
	c-0.483,1.788-0.972,3.557-1.47,5.307c-0.363,1.277-0.733,2.537-1.104,3.793c-0.499,1.687-1,3.367-1.513,5.014
	c-0.391,1.257-0.793,2.484-1.191,3.718c-0.518,1.601-1.034,3.21-1.565,4.772c-0.42,1.235-0.855,2.426-1.282,3.635
	c-0.537,1.518-1.069,3.055-1.619,4.532c-0.92,2.472-1.858,4.888-2.812,7.245c-0.501,1.237-1.019,2.413-1.529,3.617
	c-0.538,1.269-1.071,2.551-1.618,3.782c-0.521,1.17-1.053,2.293-1.582,3.429c-0.56,1.203-1.119,2.406-1.688,3.57
	c-0.531,1.086-1.07,2.136-1.609,3.188c-0.59,1.151-1.183,2.288-1.782,3.398c-0.536,0.992-1.076,1.964-1.62,2.923
	c-0.626,1.104-1.259,2.18-1.894,3.239c-0.534,0.89-1.07,1.777-1.611,2.636c-0.677,1.071-1.361,2.098-2.046,3.118
	c-0.519,0.771-1.034,1.556-1.559,2.298c-0.781,1.104-1.573,2.144-2.367,3.182c-0.442,0.579-0.88,1.191-1.326,1.748
	c-1.233,1.541-2.479,3.007-3.739,4.384c-0.288,0.315-0.583,0.586-0.872,0.891c-0.998,1.055-2,2.081-3.013,3.031
	C2212.771,1140.702,2212.283,1141.101,2211.799,1141.528z M2118.168,1185.012c-0.969,0.864-1.944,1.688-2.924,2.47
	c-0.549,0.437-1.098,0.874-1.651,1.284c-1.131,0.842-2.272,1.616-3.418,2.346c-0.382,0.243-0.76,0.518-1.144,0.749
	c-1.518,0.914-3.048,1.723-4.59,2.438c-0.415,0.193-0.837,0.342-1.255,0.52c-1.162,0.496-2.33,0.945-3.505,1.325
	c-0.537,0.174-1.075,0.327-1.615,0.477c-1.124,0.311-2.254,0.562-3.388,0.766c-0.498,0.089-0.994,0.195-1.494,0.264
	c-1.61,0.22-3.227,0.365-4.855,0.365h-39.908c10.868-16.753,20.784-38.159,29.435-63.884
	c13.347-39.689,23.036-87.252,28.628-139.073c3.646-33.797,5.567-69.387,5.567-105.847c0-75.377-8.094-147.157-23.054-206.654
	c-3.371-13.409-7.086-26.206-11.141-38.267c-8.651-25.725-18.567-47.13-29.435-63.884v-0.001h39.908
	c1.858,0,3.703,0.159,5.537,0.446c0.585,0.091,1.162,0.274,1.747,0.395c1.241,0.256,2.483,0.512,3.713,0.897
	c0.694,0.217,1.377,0.524,2.067,0.781c1.109,0.414,2.218,0.823,3.314,1.34c0.722,0.34,1.435,0.758,2.153,1.143
	c1.053,0.564,2.104,1.129,3.146,1.787c0.722,0.457,1.436,0.976,2.153,1.477c1.024,0.715,2.046,1.443,3.058,2.247
	c0.708,0.563,1.408,1.175,2.11,1.781c1.007,0.869,2.009,1.76,3.002,2.717c0.687,0.661,1.366,1.357,2.047,2.059
	c0.995,1.027,1.985,2.088,2.967,3.202c0.655,0.744,1.306,1.51,1.956,2.294c0.992,1.194,1.974,2.434,2.951,3.716
	c0.619,0.814,1.236,1.638,1.85,2.486c0.994,1.377,1.977,2.809,2.953,4.276c0.572,0.859,1.143,1.713,1.708,2.601
	c1.009,1.585,2.004,3.238,2.993,4.919c0.513,0.872,1.029,1.73,1.536,2.628c1.034,1.828,2.051,3.731,3.061,5.661
	c0.443,0.846,0.89,1.667,1.328,2.531c1.094,2.16,2.166,4.405,3.23,6.682c0.333,0.713,0.674,1.397,1.003,2.121
	c1.22,2.678,2.416,5.449,3.595,8.281c0.16,0.386,0.327,0.749,0.487,1.138c23.3,56.628,38.18,142.737,38.18,239.2
	c0,66.323-7.054,127.71-19.021,178.034c-0.023,0.095-0.045,0.189-0.069,0.283c-2.909,12.207-6.107,23.751-9.568,34.558
	c-0.179,0.561-0.359,1.125-0.539,1.683c-0.764,2.35-1.539,4.668-2.327,6.945c-0.215,0.621-0.434,1.229-0.651,1.844
	c-2.413,6.849-4.935,13.351-7.561,19.491c-0.368,0.861-0.733,1.735-1.105,2.583c-0.717,1.63-1.444,3.218-2.175,4.794
	c-0.483,1.04-0.969,2.066-1.458,3.081c-0.701,1.456-1.403,2.903-2.116,4.307c-0.572,1.125-1.152,2.207-1.731,3.299
	c-0.994,1.874-1.997,3.706-3.013,5.481c-0.827,1.444-1.654,2.886-2.493,4.263c-0.622,1.018-1.254,1.984-1.884,2.965
	c-0.724,1.13-1.451,2.248-2.185,3.328c-0.625,0.919-1.255,1.819-1.886,2.701c-0.799,1.116-1.604,2.19-2.414,3.246
	c-0.574,0.749-1.146,1.515-1.725,2.233c-1.339,1.663-2.69,3.26-4.058,4.758c-0.357,0.391-0.722,0.735-1.081,1.114
	c-1.095,1.158-2.196,2.277-3.307,3.328C2119.264,1184.045,2118.716,1184.525,2118.168,1185.012z M2020.142,1216.327
	c-1.22,1.098-2.449,2.134-3.686,3.112c-0.387,0.307-0.77,0.641-1.159,0.935c-1.579,1.197-3.173,2.28-4.777,3.28
	c-0.469,0.292-0.941,0.554-1.411,0.829c-1.285,0.75-2.577,1.436-3.876,2.058c-0.445,0.214-0.889,0.442-1.337,0.64
	c-1.669,0.739-3.348,1.382-5.041,1.905c-0.332,0.102-0.665,0.17-0.997,0.264c-1.425,0.403-2.858,0.726-4.297,0.972
	c-0.479,0.082-0.958,0.164-1.438,0.229c-1.749,0.235-3.503,0.396-5.271,0.396h-43.195c23.043-15.593,43.687-48.62,59.894-96.815
	c8.884-26.417,16.128-56.352,21.65-88.67c8.184-47.904,12.545-101.096,12.545-156.25c0-92.366-12.144-179.347-34.195-244.921
	c-0.935-2.78-1.908-5.425-2.872-8.104c-15.749-43.765-35.309-74.016-57.022-88.71h43.195c1.923,0,3.834,0.153,5.734,0.431
	c0.636,0.093,1.263,0.279,1.896,0.402c1.261,0.246,2.521,0.487,3.77,0.853c0.746,0.218,1.482,0.526,2.223,0.787
	c1.123,0.395,2.247,0.779,3.36,1.269c0.787,0.347,1.566,0.774,2.348,1.168c1.053,0.53,2.107,1.056,3.149,1.672
	c0.801,0.473,1.594,1.013,2.39,1.535c1.01,0.663,2.019,1.331,3.019,2.072c0.801,0.594,1.594,1.243,2.389,1.887
	c0.977,0.792,1.952,1.598,2.918,2.464c0.797,0.714,1.586,1.468,2.375,2.232c0.949,0.917,1.893,1.859,2.83,2.848
	c0.784,0.826,1.562,1.682,2.339,2.556c0.926,1.044,1.845,2.122,2.758,3.234c0.768,0.934,1.531,1.885,2.291,2.867
	c0.903,1.169,1.797,2.38,2.689,3.615c0.747,1.037,1.494,2.078,2.233,3.16c0.885,1.298,1.76,2.648,2.632,4.01
	c0.722,1.126,1.443,2.246,2.155,3.416c0.871,1.431,1.728,2.924,2.584,4.42c0.692,1.208,1.387,2.399,2.069,3.648
	c0.863,1.579,1.708,3.228,2.555,4.872c0.653,1.265,1.311,2.504,1.953,3.807c0.867,1.757,1.712,3.59,2.561,5.414
	c0.601,1.291,1.211,2.548,1.804,3.873c0.917,2.053,1.81,4.193,2.707,6.325c0.496,1.181,1.005,2.318,1.494,3.523
	c1.365,3.361,2.707,6.807,4.018,10.349l0,0c23.143,62.516,37.676,152.723,37.676,253.025c0,56.322-4.611,109.41-12.726,156.25l0,0
	c-0.001,0.002-0.001,0.004-0.001,0.006c-4.146,23.921-9.207,46.187-15.056,66.407c-0.096,0.331-0.192,0.662-0.288,0.992
	c-2.365,8.114-4.855,15.889-7.464,23.307c-0.22,0.626-0.44,1.254-0.662,1.875c-0.822,2.302-1.652,4.58-2.498,6.81
	c-0.155,0.409-0.314,0.802-0.469,1.209c-1.55,4.048-3.14,7.965-4.762,11.764c-0.368,0.862-0.733,1.732-1.104,2.581
	c-0.781,1.783-1.571,3.533-2.367,5.258c-0.48,1.038-0.966,2.051-1.452,3.068c-1.217,2.55-2.452,5.028-3.703,7.438
	c-0.654,1.26-1.304,2.529-1.967,3.75c-0.712,1.31-1.433,2.578-2.155,3.843c-0.693,1.217-1.392,2.409-2.096,3.584
	c-0.675,1.128-1.349,2.264-2.032,3.352c-1.257,2-2.525,3.937-3.809,5.8c-0.591,0.856-1.19,1.661-1.786,2.488
	c-0.908,1.262-1.822,2.495-2.743,3.687c-0.611,0.791-1.222,1.578-1.839,2.338c-1.246,1.537-2.502,3.012-3.771,4.42
	c-0.492,0.546-0.986,1.074-1.482,1.601c-1.24,1.319-2.489,2.576-3.749,3.772C2021.243,1215.33,2020.693,1215.831,2020.142,1216.327z
	 M497.655,1214.808c-1.257-1.193-2.504-2.448-3.741-3.765c-0.498-0.529-0.994-1.059-1.489-1.608
	c-1.265-1.406-2.519-2.879-3.762-4.411c-0.62-0.764-1.235-1.556-1.85-2.351c-0.916-1.185-1.824-2.411-2.727-3.665
	c-0.6-0.833-1.204-1.645-1.8-2.508c-1.28-1.859-2.547-3.792-3.799-5.787c-0.689-1.096-1.367-2.24-2.047-3.376
	c-0.697-1.164-1.389-2.345-2.077-3.552c-0.727-1.273-1.451-2.549-2.169-3.868c-0.647-1.192-1.282-2.432-1.92-3.661
	c-1.265-2.434-2.513-4.938-3.742-7.514c-0.487-1.021-0.976-2.038-1.457-3.081c-0.796-1.721-1.584-3.467-2.363-5.246
	c-0.372-0.849-0.737-1.72-1.106-2.583c-1.63-3.816-3.227-7.752-4.784-11.82c-0.147-0.383-0.296-0.755-0.442-1.14
	c-0.849-2.239-1.682-4.526-2.509-6.838c-0.217-0.611-0.433-1.227-0.649-1.842c-2.611-7.423-5.102-15.203-7.469-23.324
	c-0.096-0.33-0.193-0.661-0.289-0.992c-5.848-20.221-10.911-42.486-15.055-66.407c-0.001-0.002-0.001-0.004-0.001-0.006l0,0
	c-8.116-46.841-12.727-99.929-12.727-156.25c0-100.371,14.553-190.631,37.725-253.151c1.296-3.496,2.62-6.903,3.969-10.222
	c0.49-1.206,0.999-2.342,1.495-3.523c0.895-2.132,1.788-4.272,2.707-6.325c0.595-1.332,1.207-2.593,1.811-3.89
	c0.845-1.815,1.686-3.641,2.548-5.389c0.65-1.316,1.315-2.568,1.973-3.846c0.841-1.631,1.679-3.266,2.535-4.832
	c0.688-1.26,1.388-2.461,2.086-3.678c0.852-1.487,1.703-2.97,2.569-4.393c0.715-1.174,1.438-2.298,2.162-3.428
	c0.872-1.361,1.745-2.709,2.63-4.005c0.738-1.082,1.485-2.123,2.232-3.16c0.892-1.235,1.786-2.446,2.689-3.615
	c0.759-0.982,1.523-1.933,2.291-2.867c0.914-1.112,1.833-2.19,2.758-3.234c0.776-0.875,1.554-1.73,2.339-2.556
	c0.939-0.989,1.883-1.932,2.832-2.849c0.788-0.762,1.576-1.516,2.371-2.228c0.97-0.868,1.945-1.676,2.926-2.47
	c0.792-0.642,1.583-1.288,2.382-1.88c1.002-0.744,2.013-1.413,3.026-2.078c0.793-0.52,1.583-1.059,2.383-1.53
	c1.046-0.616,2.101-1.144,3.157-1.676c0.78-0.393,1.556-0.818,2.341-1.164c1.116-0.492,2.242-0.877,3.368-1.273
	c0.739-0.26,1.474-0.567,2.217-0.784c1.251-0.367,2.513-0.608,3.776-0.854c0.631-0.123,1.257-0.308,1.891-0.401
	c1.9-0.278,3.81-0.431,5.734-0.431h43.196c-21.714,14.694-41.275,44.945-57.022,88.71c-0.965,2.679-1.938,5.324-2.872,8.104
	c-22.051,65.574-34.196,152.555-34.196,244.921c0,55.155,4.362,108.347,12.547,156.25c5.521,32.318,12.765,62.253,21.649,88.67
	c16.207,48.195,36.851,81.221,59.895,96.815h-43.196c-1.769,0-3.523-0.161-5.272-0.396c-0.48-0.064-0.958-0.146-1.437-0.228
	c-1.44-0.247-2.872-0.569-4.297-0.972c-0.333-0.094-0.667-0.162-0.999-0.264c-1.692-0.523-3.372-1.166-5.041-1.905
	c-0.447-0.198-0.889-0.426-1.334-0.638c-1.3-0.623-2.593-1.309-3.878-2.059c-0.471-0.275-0.943-0.537-1.411-0.829
	c-1.605-1-3.199-2.082-4.778-3.28c-0.389-0.294-0.771-0.628-1.159-0.935c-1.237-0.978-2.465-2.014-3.684-3.111
	C498.756,1215.831,498.204,1215.328,497.655,1214.808z M431.12,1198.016c-1.948,0-3.88-0.19-5.802-0.505
	c-0.609-0.1-1.212-0.28-1.819-0.411c-1.314-0.284-2.624-0.6-3.923-1.028c-0.695-0.229-1.383-0.514-2.074-0.784
	c-1.213-0.473-2.421-0.99-3.621-1.587c-0.689-0.343-1.374-0.71-2.059-1.093c-1.219-0.681-2.428-1.432-3.631-2.239
	c-0.627-0.419-1.252-0.831-1.873-1.284c-1.329-0.97-2.645-2.038-3.955-3.158c-0.468-0.402-0.941-0.768-1.406-1.188
	c-5.464-4.926-10.734-11.161-15.777-18.571c-0.243-0.357-0.48-0.737-0.723-1.1c-1.441-2.16-2.862-4.411-4.264-6.763
	c-0.275-0.461-0.547-0.933-0.82-1.401c-1.396-2.39-2.769-4.87-4.121-7.445c-0.216-0.408-0.43-0.812-0.643-1.224
	c-1.488-2.879-2.952-5.859-4.387-8.953c-0.049-0.107-0.099-0.209-0.149-0.315c-7.766-16.816-14.71-36.758-20.64-59.202
	c-0.002-0.01-0.005-0.018-0.008-0.029l0,0c-13.862-52.488-22.152-118.607-22.152-190.524c0-83.465,11.154-159.142,29.248-214.719
	l0,0c0.002-0.006,0.004-0.012,0.006-0.018c3.536-10.859,7.333-20.947,11.369-30.174c0.004-0.01,0.009-0.021,0.014-0.031
	c1.327-3.034,2.679-5.974,4.056-8.817c0.026-0.055,0.051-0.111,0.078-0.165c1.345-2.773,2.713-5.449,4.104-8.034
	c0.063-0.119,0.125-0.243,0.189-0.361c1.356-2.508,2.732-4.917,4.128-7.24c0.102-0.17,0.202-0.351,0.304-0.52
	c1.353-2.235,2.727-4.37,4.116-6.428c0.152-0.226,0.302-0.467,0.455-0.691c1.344-1.967,2.708-3.829,4.084-5.627
	c0.204-0.267,0.404-0.555,0.609-0.818c1.322-1.697,2.664-3.286,4.015-4.821c0.268-0.305,0.531-0.64,0.8-0.939
	c1.294-1.434,2.605-2.757,3.923-4.041c0.334-0.326,0.663-0.689,0.999-1.005c1.264-1.189,2.545-2.263,3.83-3.31
	c0.399-0.326,0.789-0.694,1.19-1.006c1.234-0.959,2.484-1.798,3.737-2.624c0.459-0.304,0.914-0.658,1.376-0.944
	c1.216-0.752,2.448-1.375,3.678-1.999c0.507-0.256,1.006-0.57,1.516-0.805c1.229-0.566,2.472-0.999,3.715-1.435
	c0.52-0.183,1.033-0.429,1.556-0.588c1.299-0.398,2.612-0.655,3.926-0.908c0.474-0.092,0.943-0.248,1.418-0.321
	c1.791-0.273,3.594-0.416,5.408-0.416h39.907v0.001c-10.867,16.753-20.784,38.158-29.435,63.884
	c-3.23,9.608-6.222,19.726-9.02,30.202c-16.301,61.027-25.175,135.886-25.175,214.719c0,68.688,6.727,134.381,19.239,190.524
	c4.313,19.353,9.304,37.587,14.956,54.396c8.651,25.725,18.568,47.131,29.435,63.884H431.12L431.12,1198.016z M244.32,889.211
	c0-71.87,9.698-136.981,25.402-184.476l0,0c0.001-0.003,0.001-0.005,0.002-0.007c5.015-15.167,10.64-28.537,16.762-39.75
	c0.003-0.006,0.007-0.013,0.01-0.018c1.203-2.203,2.425-4.32,3.666-6.354c0.024-0.042,0.05-0.087,0.076-0.129
	c1.207-1.974,2.432-3.86,3.672-5.669c0.063-0.09,0.123-0.19,0.185-0.28c1.19-1.725,2.397-3.357,3.616-4.926
	c0.118-0.152,0.233-0.322,0.352-0.472c1.175-1.494,2.366-2.89,3.565-4.234c0.167-0.188,0.331-0.399,0.499-0.583
	c1.157-1.274,2.332-2.447,3.512-3.579c0.215-0.207,0.426-0.445,0.643-0.648c1.119-1.045,2.254-1.985,3.391-2.899
	c0.288-0.232,0.569-0.5,0.857-0.724c1.084-0.836,2.182-1.564,3.282-2.28c0.348-0.227,0.691-0.5,1.041-0.715
	c1.066-0.654,2.146-1.195,3.227-1.734c0.391-0.195,0.776-0.441,1.169-0.621c1.05-0.481,2.112-0.845,3.174-1.214
	c0.432-0.151,0.859-0.357,1.292-0.489c1.085-0.33,2.183-0.539,3.28-0.75c0.417-0.081,0.828-0.218,1.246-0.282
	c1.518-0.23,3.046-0.349,4.582-0.349h32.367c-6.213,12.039-11.991,25.916-17.247,41.547c-3.924,11.667-7.488,24.106-10.703,37.159
	c-13.142,53.351-20.249,117.334-20.249,184.476c0,57.266,5.165,112.244,14.837,160.283c4.442,22.065,9.832,42.671,16.115,61.353
	c5.257,15.63,11.034,29.508,17.247,41.547h-32.367c-0.01,0-0.019-0.002-0.029-0.002c-1.66-0.002-3.309-0.165-4.947-0.436
	c-0.53-0.087-1.053-0.242-1.581-0.358c-1.122-0.245-2.239-0.519-3.349-0.887c-0.6-0.199-1.196-0.443-1.793-0.678
	c-1.039-0.408-2.072-0.858-3.099-1.373c-0.593-0.298-1.185-0.61-1.775-0.943c-1.051-0.592-2.094-1.251-3.131-1.953
	c-0.53-0.359-1.063-0.704-1.59-1.091c-1.193-0.877-2.373-1.845-3.547-2.864c-0.349-0.304-0.705-0.572-1.052-0.888
	c-3.115-2.83-6.155-6.163-9.113-9.955c-0.257-0.331-0.51-0.692-0.765-1.03c-1.214-1.597-2.415-3.263-3.599-5.015
	c-0.321-0.477-0.639-0.972-0.959-1.461c-1.129-1.723-2.244-3.51-3.344-5.371c-0.297-0.503-0.593-1.006-0.888-1.519
	c-1.168-2.028-2.317-4.134-3.45-6.315c-0.19-0.367-0.384-0.722-0.573-1.093c-5.459-10.684-10.49-23.115-15.016-37.027
	c-0.074-0.225-0.146-0.454-0.219-0.681c-1.058-3.276-2.087-6.632-3.088-10.068c-0.078-0.27-0.158-0.539-0.236-0.81
	c-1.041-3.602-2.051-7.279-3.026-11.047c-0.003-0.012-0.007-0.024-0.01-0.036l0,0C251.164,1005.102,244.32,949.547,244.32,889.211z
	 M199.626,942.912c-0.25-0.295-0.496-0.603-0.741-0.928c-0.296-0.395-0.589-0.819-0.878-1.257c-0.247-0.374-0.493-0.747-0.734-1.151
	c-0.27-0.452-0.53-0.94-0.791-1.428c-0.243-0.456-0.489-0.899-0.725-1.385c-0.236-0.486-0.459-1.012-0.687-1.528
	c-0.244-0.552-0.494-1.083-0.73-1.669c-0.106-0.267-0.205-0.564-0.309-0.837c-0.625-1.623-1.211-3.364-1.761-5.209
	c-0.1-0.337-0.208-0.655-0.306-1c-0.254-0.893-0.489-1.83-0.724-2.769c-0.111-0.442-0.227-0.872-0.333-1.324
	c-0.226-0.955-0.435-1.941-0.642-2.937c-0.096-0.462-0.193-0.921-0.285-1.392c-0.199-1.026-0.386-2.075-0.564-3.14
	c-0.079-0.473-0.157-0.948-0.232-1.428c-0.173-1.104-0.334-2.221-0.484-3.361c-0.059-0.451-0.113-0.906-0.168-1.362
	c-0.145-1.196-0.283-2.399-0.402-3.631c-0.038-0.387-0.067-0.784-0.102-1.175c-0.118-1.331-0.231-2.666-0.317-4.033
	c-0.001-0.008-0.001-0.016-0.002-0.024h0.001c-0.22-3.482-0.348-7.061-0.348-10.733c0-20.308,3.528-38.14,8.853-48.455
	c0-0.001,0.001-0.002,0.001-0.003c0.566-1.096,1.154-2.093,1.759-3.012c0.133-0.203,0.269-0.384,0.403-0.578
	c0.481-0.689,0.969-1.324,1.471-1.896c0.195-0.223,0.39-0.435,0.588-0.64c0.459-0.476,0.928-0.891,1.404-1.264
	c0.224-0.177,0.446-0.362,0.674-0.515c0.487-0.327,0.984-0.574,1.484-0.79c0.214-0.093,0.423-0.218,0.637-0.289
	c0.714-0.236,1.437-0.382,2.172-0.382h29.363c-0.549,7.413-0.994,14.909-1.331,22.484c-0.516,11.632-0.802,23.421-0.802,35.34
	c0,3.591,0.04,7.164,0.089,10.733c0.212,15.99,0.905,31.726,2.044,47.091h-29.363c-0.636,0-1.264-0.105-1.884-0.283
	c-0.205-0.058-0.404-0.166-0.607-0.243c-0.41-0.156-0.819-0.323-1.222-0.555c-0.241-0.139-0.477-0.318-0.715-0.483
	c-0.355-0.246-0.707-0.502-1.055-0.806c-0.249-0.218-0.494-0.462-0.739-0.708C200.262,943.632,199.942,943.286,199.626,942.912z
	 M606.907,1230.946c-63.469,0-114.92-153-114.92-341.735c0-188.735,51.452-341.735,114.92-341.735
	c56.707,0,103.788,122.173,113.182,282.811h-2.582c-3.82-55.417-13.011-106.436-26.822-147.505
	c-19.767-58.781-47.49-91.153-78.062-91.153s-58.296,32.372-78.063,91.153c-18.594,55.292-28.834,128.603-28.834,206.429
	c0,77.826,10.24,151.136,28.834,206.429c19.767,58.781,47.49,91.153,78.063,91.153s58.295-32.372,78.062-91.153
	c13.811-41.069,23.001-92.088,26.822-147.505h2.582C710.695,1108.773,663.614,1230.946,606.907,1230.946z M635.192,955.516
	c-7.236,0-13.647-10.295-17.721-26.179c4.211,11.072,10.808,18.798,20.497,18.798h7.418
	C642.328,952.823,638.868,955.516,635.192,955.516z M635.192,822.906c3.677,0,7.137,2.693,10.194,7.382h-7.418
	c-9.689,0-16.286,7.725-20.497,18.797C621.544,833.201,627.956,822.906,635.192,822.906z M635.192,812.624
	c-22.507,0-32.58,38.466-32.58,76.588c0,38.122,10.073,76.588,32.58,76.588c9.492,0,16.747-6.891,21.993-17.664h6.032
	c-7.615,51.211-24.838,86.963-44.879,86.963c-27.095,0-49.059-65.315-49.059-145.887s21.964-145.887,49.059-145.887
	c20.041,0,37.264,35.753,44.879,86.963h-6.032C651.938,819.515,644.684,812.624,635.192,812.624z M618.339,733.042
	c-38.958,0-59.341,78.563-59.341,156.169c0,77.606,20.383,156.169,59.341,156.169c28.899,0,47.565-43.242,55.284-97.245h33.571
	c-9.141,130.403-48.005,228.375-94.571,228.375c-53.359,0-96.615-128.628-96.615-287.299s43.256-287.3,96.615-287.3
	c46.566,0,85.43,97.973,94.571,228.376h-33.571C665.905,776.284,647.238,733.042,618.339,733.042z M637.967,937.853
	c-0.534,0-1.062-0.089-1.583-0.237c-0.175-0.05-0.343-0.142-0.517-0.208c-0.343-0.132-0.686-0.271-1.024-0.465
	c-0.202-0.117-0.4-0.267-0.6-0.405c-0.298-0.207-0.594-0.423-0.885-0.677c-0.212-0.185-0.421-0.392-0.628-0.602
	c-0.27-0.271-0.537-0.558-0.8-0.87c-0.212-0.25-0.421-0.511-0.628-0.787c-0.248-0.331-0.492-0.685-0.734-1.052
	c-0.209-0.317-0.418-0.633-0.621-0.975c-0.224-0.375-0.439-0.779-0.656-1.184c-0.209-0.39-0.42-0.771-0.622-1.188
	c-0.19-0.392-0.371-0.818-0.553-1.232c-0.214-0.48-0.432-0.944-0.637-1.455c-0.06-0.151-0.114-0.32-0.174-0.474
	c-0.566-1.45-1.094-3.018-1.588-4.683c-0.076-0.255-0.157-0.495-0.23-0.755c-0.22-0.773-0.424-1.584-0.628-2.397
	c-0.086-0.346-0.177-0.682-0.26-1.035c-0.193-0.817-0.373-1.66-0.549-2.513c-0.079-0.378-0.158-0.753-0.232-1.138
	c-0.17-0.874-0.328-1.766-0.481-2.673c-0.064-0.385-0.127-0.771-0.188-1.162c-0.147-0.934-0.284-1.878-0.411-2.843
	c-0.05-0.381-0.095-0.768-0.142-1.153c-0.123-1.009-0.239-2.022-0.339-3.06c-0.03-0.312-0.053-0.631-0.081-0.946
	c-0.101-1.129-0.196-2.263-0.27-3.422c0-0.007-0.001-0.015-0.001-0.022h0.001c-0.185-2.929-0.293-5.94-0.293-9.028
	c0-11.209,1.288-21.503,3.43-29.729h-0.001c0.001-0.006,0.004-0.01,0.005-0.016c1.121-4.303,2.473-8.034,4.012-11.013
	c0.002-0.005,0.005-0.008,0.007-0.013c0.474-0.918,0.967-1.755,1.473-2.526c0.112-0.171,0.228-0.325,0.342-0.489
	c0.402-0.578,0.813-1.11,1.233-1.59c0.166-0.19,0.331-0.369,0.499-0.543c0.386-0.399,0.78-0.747,1.178-1.06
	c0.189-0.149,0.376-0.305,0.568-0.434c0.41-0.274,0.826-0.481,1.247-0.663c0.18-0.079,0.356-0.184,0.537-0.245
	c0.6-0.198,1.209-0.321,1.826-0.321h296.481h952.768h0.001c0.002,0,0.003,0.001,0.005,0.001c0.616,0.001,1.222,0.122,1.821,0.32
	c0.183,0.061,0.361,0.167,0.54,0.246c0.42,0.181,0.835,0.388,1.244,0.662c0.192,0.13,0.381,0.286,0.571,0.436
	c0.397,0.312,0.788,0.66,1.173,1.057c0.168,0.175,0.336,0.355,0.502,0.546c0.419,0.479,0.827,1.009,1.229,1.585
	c0.115,0.166,0.232,0.322,0.346,0.496c0.503,0.766,0.993,1.598,1.465,2.511c0.006,0.01,0.012,0.018,0.016,0.029
	c1.539,2.982,2.89,6.715,4.012,11.019c0.001,0.002,0.002,0.005,0.002,0.007l0,0c2.141,8.226,3.43,18.519,3.43,29.729
	c0,4.339-0.209,8.524-0.568,12.527c-0.026,0.291-0.048,0.586-0.076,0.875c-0.102,1.062-0.221,2.099-0.346,3.129
	c-0.043,0.357-0.085,0.715-0.131,1.068c-0.128,0.981-0.267,1.942-0.416,2.892c-0.061,0.382-0.121,0.76-0.185,1.138
	c-0.153,0.91-0.312,1.805-0.482,2.681c-0.076,0.387-0.155,0.764-0.234,1.143c-0.175,0.846-0.353,1.685-0.545,2.497
	c-0.087,0.365-0.18,0.714-0.27,1.072c-0.202,0.804-0.403,1.606-0.621,2.37c-0.076,0.265-0.158,0.511-0.235,0.771
	c-0.474,1.594-0.98,3.096-1.52,4.492c-0.082,0.213-0.158,0.445-0.241,0.653c-0.199,0.494-0.408,0.943-0.615,1.409
	c-0.191,0.433-0.379,0.875-0.577,1.282c-0.199,0.408-0.405,0.78-0.609,1.163c-0.22,0.412-0.44,0.824-0.668,1.205
	c-0.201,0.339-0.408,0.652-0.615,0.965c-0.244,0.37-0.49,0.727-0.741,1.061c-0.206,0.274-0.412,0.532-0.623,0.78
	c-0.266,0.315-0.535,0.605-0.808,0.879c-0.205,0.207-0.412,0.412-0.621,0.595c-0.294,0.257-0.593,0.475-0.894,0.683
	c-0.198,0.137-0.393,0.286-0.594,0.402c-0.339,0.195-0.683,0.334-1.027,0.466c-0.172,0.066-0.342,0.157-0.515,0.207
	c-0.521,0.149-1.048,0.237-1.583,0.237h-0.001H934.448H637.967z M1887.216,830.287h-18.071
	c5.346-17.233,12.981-28.093,21.487-28.093c16.162,0,29.263,38.959,29.263,87.017c0,48.058-13.101,87.016-29.263,87.016
	c-8.506,0-16.141-10.859-21.487-28.092h18.071c19.663,0,26.64-31.742,26.64-58.924S1906.879,830.287,1887.216,830.287z
	 M1890.632,986.51c27.17,0,39.544-50.437,39.544-97.299c0-46.862-12.374-97.299-39.544-97.299
	c-15.308,0-25.916,16.013-32.264,38.375h-2.136c7.614-51.211,24.838-86.963,44.879-86.963c27.095,0,49.059,65.316,49.059,145.887
	s-21.964,145.887-49.059,145.887c-20.041,0-37.265-35.752-44.879-86.963h2.136C1864.716,970.496,1875.324,986.51,1890.632,986.51z
	 M1901.111,1045.38c38.958,0,59.341-78.563,59.341-156.169c0-77.607-20.383-156.169-59.341-156.169
	c-28.9,0-47.567,43.243-55.286,97.245h-33.571c9.143-130.403,48.006-228.376,94.572-228.376c53.358,0,96.614,128.628,96.614,287.3
	s-43.256,287.299-96.614,287.299c-46.566,0-85.429-97.972-94.572-228.375h33.571
	C1853.545,1002.138,1872.212,1045.38,1901.111,1045.38z M1801.944,948.135c3.82,55.417,13.011,106.436,26.821,147.505
	c19.767,58.781,47.49,91.153,78.062,91.153c30.573,0,58.295-32.372,78.062-91.153c18.594-55.293,28.834-128.604,28.834-206.429
	c0-77.826-10.24-151.137-28.834-206.429c-19.767-58.781-47.49-91.153-78.062-91.153c-30.572,0-58.295,32.372-78.062,91.153
	c-13.81,41.069-23.001,92.088-26.821,147.505h-2.583c9.394-160.638,56.475-282.811,113.183-282.811
	c63.468,0,114.919,152.999,114.919,341.735c0,188.735-51.451,341.735-114.919,341.735c-56.708,0-103.788-122.173-113.183-282.811
	H1801.944z"/>
<path style="fill:#A9C7E0;" d="M2334.117,840.756c0-0.001-0.002-0.002-0.002-0.003c-0.565-1.098-1.154-2.091-1.758-3.012
	c-0.133-0.203-0.27-0.384-0.404-0.578c-0.479-0.691-0.97-1.322-1.47-1.896c-0.195-0.223-0.39-0.435-0.588-0.64
	c-0.459-0.477-0.929-0.89-1.404-1.264c-0.224-0.177-0.446-0.362-0.674-0.515c-0.487-0.328-0.984-0.573-1.484-0.79
	c-0.214-0.093-0.422-0.218-0.638-0.289c-0.713-0.237-1.437-0.382-2.171-0.382h-40.245c0.549,7.413,0.994,14.909,1.331,22.484h54.282
	C2337.557,848.75,2335.944,844.308,2334.117,840.756z"/>
<path style="fill:#768FA3;" d="M2330.704,942.915c0.251-0.298,0.5-0.607,0.746-0.935c0.294-0.393,0.584-0.813,0.871-1.247
	c0.249-0.377,0.499-0.753,0.741-1.162c0.266-0.447,0.523-0.929,0.782-1.412c0.245-0.461,0.495-0.91,0.734-1.403
	c0.23-0.475,0.448-0.991,0.672-1.494c0.249-0.564,0.504-1.106,0.744-1.703c0.084-0.209,0.16-0.444,0.243-0.657
	c0.656-1.694,1.273-3.518,1.849-5.456c0.092-0.311,0.19-0.602,0.28-0.919c0.26-0.916,0.502-1.876,0.743-2.839
	c0.104-0.415,0.212-0.818,0.312-1.241c0.23-0.971,0.443-1.976,0.654-2.989c0.092-0.447,0.187-0.89,0.275-1.345
	c0.203-1.043,0.393-2.11,0.574-3.193c0.074-0.449,0.148-0.899,0.219-1.354c0.175-1.121,0.341-2.258,0.492-3.417
	c0.057-0.433,0.108-0.871,0.161-1.309c0.148-1.216,0.289-2.443,0.409-3.694c0.033-0.348,0.06-0.702,0.09-1.052
	c0.123-1.368,0.238-2.745,0.327-4.15h-57.298c-0.212,15.99-0.906,31.726-2.044,47.091h40.245c0.636,0,1.264-0.105,1.884-0.283
	c0.205-0.059,0.404-0.166,0.607-0.243c0.41-0.156,0.82-0.323,1.222-0.555c0.241-0.139,0.477-0.318,0.715-0.483
	c0.355-0.246,0.707-0.502,1.054-0.805c0.25-0.218,0.496-0.464,0.741-0.71C2330.071,943.63,2330.389,943.288,2330.704,942.915z"/>
<path style="fill:#4771A1;" d="M316.992,889.211c0-67.142,7.108-131.125,20.249-184.476h-67.519
	c-15.705,47.495-25.402,112.606-25.402,184.476c0,60.336,6.844,115.89,18.327,160.283h69.183
	C322.158,1001.455,316.992,946.477,316.992,889.211z"/>
<path style="fill:#6295C6;" d="M347.945,667.576c5.257-15.631,11.034-29.508,17.247-41.547h-32.367
	c-1.537,0-3.065,0.118-4.582,0.349c-0.418,0.064-0.83,0.201-1.246,0.282c-1.097,0.212-2.194,0.419-3.28,0.75
	c-0.434,0.132-0.861,0.337-1.292,0.489c-1.062,0.37-2.124,0.733-3.174,1.214c-0.393,0.18-0.778,0.425-1.169,0.621
	c-1.081,0.539-2.161,1.08-3.227,1.734c-0.35,0.215-0.693,0.488-1.041,0.715c-1.1,0.716-2.198,1.443-3.282,2.28
	c-0.289,0.223-0.569,0.492-0.857,0.724c-1.137,0.915-2.272,1.854-3.391,2.899c-0.217,0.202-0.427,0.44-0.643,0.648
	c-1.181,1.132-2.355,2.304-3.512,3.579c-0.168,0.185-0.332,0.396-0.499,0.583c-1.199,1.346-2.391,2.74-3.565,4.234
	c-0.118,0.151-0.234,0.321-0.352,0.472c-1.219,1.57-2.427,3.2-3.616,4.926c-0.063,0.09-0.123,0.19-0.185,0.28
	c-1.24,1.81-2.466,3.694-3.672,5.669c-0.025,0.042-0.051,0.087-0.076,0.129c-1.241,2.035-2.464,4.15-3.666,6.354
	c-0.004,0.006-0.007,0.013-0.01,0.018c-6.121,11.216-11.747,24.585-16.762,39.75c-0.001,0.002-0.002,0.004-0.002,0.007l0,0h67.519
	C340.457,691.682,344.021,679.243,347.945,667.576z"/>
<path style="fill:#365777;" d="M262.657,1049.53c0.975,3.767,1.986,7.445,3.026,11.047c0.078,0.271,0.157,0.54,0.236,0.81
	c1.001,3.435,2.03,6.792,3.088,10.068c0.073,0.227,0.145,0.455,0.219,0.681c4.524,13.913,9.56,26.34,15.016,37.027
	c0.189,0.371,0.383,0.726,0.573,1.093c1.133,2.182,2.282,4.286,3.45,6.315c0.295,0.513,0.591,1.016,0.888,1.519
	c1.1,1.861,2.216,3.648,3.344,5.371c0.32,0.489,0.638,0.984,0.959,1.461c1.184,1.753,2.386,3.417,3.599,5.015
	c0.255,0.338,0.508,0.699,0.765,1.03c2.958,3.795,5.999,7.123,9.113,9.955c0.347,0.317,0.702,0.584,1.052,0.888
	c1.174,1.019,2.354,1.987,3.547,2.864c0.527,0.387,1.059,0.732,1.59,1.091c1.038,0.702,2.081,1.36,3.131,1.953
	c0.59,0.333,1.181,0.645,1.775,0.943c1.027,0.515,2.06,0.965,3.099,1.373c0.597,0.235,1.193,0.478,1.793,0.678
	c1.11,0.367,2.227,0.642,3.349,0.887c0.527,0.115,1.05,0.27,1.581,0.358c1.638,0.27,3.287,0.434,4.947,0.436
	c0.009,0,0.019,0.002,0.029,0.002h32.367c-6.213-12.039-11.991-25.917-17.247-41.547c-6.283-18.682-11.673-39.288-16.115-61.353
	h-69.183l0,0C262.65,1049.506,262.654,1049.518,262.657,1049.53z"/>
<path style="fill:#4771A1;" d="M426.636,1079.736c-12.512-56.144-19.239-121.836-19.239-190.524
	c0-78.832,8.874-153.692,25.175-214.719h-76.049c-18.094,55.577-29.248,131.253-29.248,214.719
	c0,71.917,8.291,138.036,22.152,190.524H426.636z"/>
<path style="fill:#6295C6;" d="M432.572,674.493c2.798-10.477,5.79-20.595,9.02-30.202c8.651-25.725,18.568-47.13,29.435-63.884
	h-39.907c-1.814,0-3.618,0.142-5.409,0.416c-0.475,0.073-0.944,0.229-1.418,0.321c-1.313,0.254-2.627,0.51-3.926,0.908
	c-0.523,0.159-1.036,0.405-1.556,0.588c-1.243,0.437-2.486,0.869-3.715,1.435c-0.509,0.235-1.009,0.548-1.516,0.805
	c-1.231,0.625-2.462,1.247-3.678,1.999c-0.462,0.286-0.917,0.64-1.376,0.944c-1.253,0.828-2.504,1.664-3.737,2.624
	c-0.401,0.311-0.792,0.68-1.19,1.006c-1.285,1.049-2.566,2.119-3.83,3.31c-0.336,0.316-0.665,0.678-0.999,1.005
	c-1.318,1.285-2.63,2.605-3.923,4.041c-0.269,0.299-0.532,0.633-0.8,0.939c-1.35,1.538-2.692,3.123-4.015,4.821
	c-0.205,0.263-0.405,0.552-0.609,0.818c-1.376,1.798-2.741,3.658-4.084,5.627c-0.153,0.224-0.302,0.465-0.455,0.691
	c-1.388,2.06-2.764,4.191-4.116,6.428c-0.102,0.169-0.202,0.35-0.304,0.52c-1.394,2.326-2.772,4.732-4.128,7.24
	c-0.063,0.118-0.125,0.243-0.189,0.361c-1.391,2.587-2.759,5.26-4.104,8.034c-0.027,0.053-0.052,0.11-0.078,0.165
	c-1.376,2.845-2.73,5.783-4.056,8.817c-0.004,0.01-0.009,0.021-0.014,0.031c-4.034,9.229-7.835,19.317-11.369,30.174
	c-0.002,0.006-0.004,0.012-0.006,0.018l0,0H432.572z"/>
<path style="fill:#365777;" d="M441.592,1134.132c-5.652-16.809-10.643-35.043-14.956-54.396h-77.209l0,0
	c0.003,0.01,0.006,0.019,0.008,0.029c5.929,22.44,12.878,42.38,20.64,59.202c0.049,0.107,0.099,0.209,0.149,0.315
	c1.434,3.096,2.899,6.073,4.387,8.953c0.213,0.412,0.428,0.816,0.643,1.224c1.352,2.576,2.727,5.054,4.121,7.445
	c0.273,0.468,0.545,0.941,0.82,1.401c1.4,2.353,2.824,4.601,4.264,6.763c0.242,0.362,0.48,0.743,0.723,1.1
	c5.04,7.416,10.314,13.64,15.777,18.571c0.465,0.42,0.938,0.787,1.406,1.188c1.309,1.121,2.625,2.187,3.955,3.158
	c0.621,0.453,1.246,0.865,1.873,1.284c1.202,0.808,2.411,1.557,3.631,2.239c0.684,0.383,1.37,0.75,2.059,1.093
	c1.2,0.597,2.408,1.113,3.621,1.587c0.691,0.27,1.379,0.555,2.074,0.784c1.3,0.428,2.609,0.744,3.923,1.028
	c0.607,0.132,1.21,0.311,1.819,0.411c1.922,0.315,3.854,0.505,5.802,0.505h39.907
	C460.16,1181.263,450.244,1159.857,441.592,1134.132z"/>
<path style="fill:#4771A1;" d="M481.704,889.211c0-92.366,12.144-179.347,34.196-244.921c0.935-2.78,1.908-5.425,2.872-8.104
	h-63.417c0.016-0.043,0.033-0.083,0.049-0.126c-23.172,62.52-37.725,152.78-37.725,253.151c0,56.322,4.611,109.41,12.727,156.25
	h63.845C486.067,997.558,481.704,944.366,481.704,889.211z"/>
<path style="fill:#6295C6;" d="M518.772,636.186c15.747-43.765,35.308-74.016,57.022-88.71h-43.196
	c-1.923,0-3.834,0.153-5.734,0.431c-0.634,0.093-1.26,0.277-1.891,0.401c-1.263,0.246-2.525,0.487-3.776,0.854
	c-0.743,0.218-1.477,0.525-2.217,0.784c-1.126,0.396-2.252,0.781-3.368,1.273c-0.784,0.346-1.561,0.771-2.341,1.164
	c-1.056,0.531-2.111,1.059-3.157,1.676c-0.799,0.471-1.59,1.01-2.383,1.53c-1.013,0.665-2.024,1.334-3.026,2.078
	c-0.799,0.592-1.59,1.238-2.382,1.88c-0.98,0.794-1.956,1.602-2.926,2.47c-0.794,0.712-1.583,1.466-2.371,2.228
	c-0.949,0.918-1.893,1.86-2.832,2.849c-0.784,0.826-1.563,1.682-2.339,2.556c-0.925,1.044-1.844,2.122-2.758,3.234
	c-0.768,0.934-1.531,1.886-2.291,2.867c-0.903,1.169-1.798,2.38-2.689,3.615c-0.747,1.037-1.494,2.078-2.232,3.16
	c-0.885,1.296-1.758,2.644-2.63,4.005c-0.724,1.13-1.448,2.255-2.162,3.428c-0.866,1.423-1.717,2.906-2.569,4.393
	c-0.697,1.217-1.398,2.418-2.086,3.678c-0.856,1.566-1.694,3.201-2.535,4.832c-0.658,1.278-1.323,2.53-1.973,3.846
	c-0.862,1.748-1.703,3.574-2.548,5.389c-0.603,1.297-1.216,2.559-1.811,3.89c-0.918,2.053-1.811,4.193-2.707,6.325
	c-0.497,1.181-1.006,2.318-1.495,3.523c-1.348,3.32-2.673,6.726-3.969,10.222c-0.016,0.043-0.033,0.083-0.049,0.126H518.772z"/>
<path style="fill:#365777;" d="M504.152,1220.374c1.579,1.197,3.173,2.28,4.778,3.28c0.468,0.292,0.94,0.554,1.411,0.829
	c1.285,0.75,2.578,1.437,3.878,2.059c0.445,0.212,0.887,0.441,1.334,0.638c1.669,0.739,3.349,1.382,5.041,1.905
	c0.331,0.102,0.666,0.17,0.999,0.264c1.425,0.403,2.858,0.726,4.297,0.972c0.478,0.082,0.958,0.163,1.437,0.228
	c1.749,0.235,3.503,0.396,5.272,0.396h43.196c-23.043-15.593-43.688-48.62-59.895-96.815c-8.884-26.417-16.128-56.351-21.649-88.67
	h-63.845l0,0c0,0.002,0.001,0.004,0.001,0.006c4.144,23.916,9.21,46.187,15.055,66.407c0.096,0.331,0.193,0.662,0.289,0.992
	c2.365,8.121,4.859,15.899,7.469,23.324c0.217,0.615,0.432,1.231,0.649,1.842c0.826,2.313,1.66,4.598,2.509,6.838
	c0.146,0.386,0.295,0.757,0.442,1.14c1.557,4.07,3.154,8.002,4.784,11.82c0.368,0.862,0.734,1.734,1.106,2.583
	c0.779,1.78,1.568,3.525,2.363,5.246c0.481,1.043,0.969,2.06,1.457,3.081c1.229,2.577,2.477,5.079,3.742,7.514
	c0.639,1.229,1.273,2.469,1.92,3.661c0.716,1.32,1.442,2.595,2.169,3.868c0.688,1.206,1.38,2.388,2.077,3.552
	c0.68,1.136,1.359,2.28,2.047,3.376c1.253,1.995,2.52,3.928,3.799,5.787c0.595,0.864,1.2,1.675,1.8,2.508
	c0.903,1.254,1.811,2.479,2.727,3.665c0.615,0.796,1.23,1.587,1.85,2.351c1.243,1.533,2.497,3.006,3.762,4.411
	c0.494,0.549,0.991,1.078,1.489,1.608c1.237,1.317,2.485,2.572,3.741,3.765c0.549,0.521,1.102,1.023,1.654,1.52
	c1.219,1.097,2.448,2.133,3.684,3.111C503.381,1219.746,503.764,1220.08,504.152,1220.374z"/>
<path style="fill:#4771A1;" d="M717.507,948.135c-3.82,55.417-13.011,106.436-26.822,147.505
	c-19.767,58.781-47.49,91.153-78.062,91.153s-58.296-32.372-78.063-91.153c-18.594-55.293-28.834-128.603-28.834-206.429
	c0-77.826,10.24-151.137,28.834-206.429c19.767-58.781,47.49-91.153,78.063-91.153s58.295,32.372,78.062,91.153
	c13.811,41.069,23.001,92.088,26.822,147.505h2.582c-9.394-160.638-56.475-282.811-113.182-282.811
	c-63.469,0-114.92,152.999-114.92,341.735c0,188.735,51.452,341.735,114.92,341.735c56.707,0,103.788-122.173,113.182-282.811
	H717.507z"/>
<path style="fill:#365777;" d="M612.623,601.912c-53.359,0-96.615,128.628-96.615,287.3s43.256,287.299,96.615,287.299
	c46.566,0,85.43-97.972,94.571-228.375h-33.571c-7.718,54.003-26.385,97.245-55.284,97.245c-38.958,0-59.341-78.563-59.341-156.169
	c0-77.607,20.383-156.169,59.341-156.169c28.899,0,47.566,43.243,55.284,97.245h33.571
	C698.052,699.884,659.188,601.912,612.623,601.912z"/>
<path style="fill:#4771A1;" d="M618.339,743.324c-27.095,0-49.059,65.316-49.059,145.887s21.964,145.887,49.059,145.887
	c20.041,0,37.264-35.752,44.879-86.963h-6.032c-5.246,10.773-12.501,17.664-21.993,17.664c-22.507,0-32.58-38.466-32.58-76.588
	c0-38.122,10.073-76.588,32.58-76.588c9.492,0,16.747,6.891,21.993,17.664h6.032C655.602,779.077,638.379,743.324,618.339,743.324z"
	/>
<path style="fill:#365777;" d="M617.47,929.337c4.074,15.884,10.486,26.179,17.721,26.179c3.677,0,7.136-2.693,10.194-7.381h-7.418
	C628.279,948.135,621.681,940.41,617.47,929.337z"/>
<path style="fill:#365777;" d="M637.967,830.287h7.418c-3.057-4.688-6.517-7.382-10.194-7.382c-7.236,0-13.647,10.295-17.721,26.179
	C621.681,838.012,628.279,830.287,637.967,830.287z"/>
<path style="fill:#4771A1;" d="M2273.429,940.623c1.109-16.631,1.701-33.813,1.701-51.412c0-54.091-5.495-104.356-14.905-146.17
	h-69.935c7.946,44.573,12.168,94.434,12.168,146.17c0,17.398-0.505,34.565-1.438,51.412H2273.429z"/>
<path style="fill:#6295C6;" d="M2260.225,743.041c0-0.003-0.001-0.006-0.002-0.01c-0.968-4.304-1.983-8.513-3.032-12.633
	c-0.108-0.421-0.221-0.826-0.329-1.245c-0.9-3.486-1.829-6.899-2.786-10.244c-0.247-0.864-0.498-1.715-0.748-2.569
	c-0.879-2.999-1.783-5.937-2.706-8.814c-0.243-0.756-0.481-1.523-0.728-2.271c-2.348-7.142-4.828-13.897-7.435-20.211
	c-0.215-0.522-0.439-1.016-0.655-1.532c-1.072-2.545-2.163-5.018-3.273-7.416c-0.357-0.771-0.719-1.527-1.08-2.283
	c-1.036-2.166-2.088-4.261-3.156-6.296c-0.353-0.674-0.702-1.36-1.06-2.019c-1.364-2.52-2.747-4.954-4.16-7.255
	c-0.037-0.061-0.073-0.128-0.109-0.189c-1.472-2.39-2.974-4.636-4.495-6.781c-0.367-0.518-0.742-0.993-1.112-1.495
	c-1.14-1.549-2.29-3.036-3.455-4.444c-0.49-0.591-0.982-1.165-1.477-1.731c-1.119-1.283-2.25-2.49-3.391-3.64
	c-0.466-0.469-0.928-0.959-1.397-1.406c-1.519-1.447-3.053-2.797-4.607-4.003c-0.074-0.057-0.145-0.127-0.217-0.184
	c-1.628-1.25-3.279-2.333-4.941-3.31c-0.489-0.286-0.981-0.518-1.471-0.781c-1.193-0.638-2.391-1.217-3.599-1.712
	c-0.581-0.238-1.164-0.456-1.749-0.66c-1.194-0.417-2.396-0.75-3.604-1.025c-0.536-0.121-1.068-0.27-1.606-0.363
	c-1.728-0.299-3.465-0.493-5.218-0.493h-32.367c6.212,12.039,11.991,25.916,17.247,41.547c7.603,22.609,13.896,48.04,18.784,75.465
	H2260.225L2260.225,743.041z"/>
<path style="fill:#365777;" d="M2216.264,1137.221c0.289-0.306,0.584-0.577,0.872-0.891c1.26-1.377,2.506-2.843,3.739-4.384
	c0.446-0.558,0.884-1.169,1.326-1.748c0.794-1.038,1.587-2.078,2.367-3.182c0.525-0.741,1.04-1.527,1.559-2.298
	c0.686-1.02,1.37-2.047,2.046-3.118c0.541-0.858,1.077-1.745,1.611-2.636c0.635-1.059,1.268-2.135,1.894-3.239
	c0.544-0.959,1.084-1.932,1.62-2.923c0.6-1.11,1.193-2.247,1.782-3.398c0.539-1.051,1.078-2.102,1.609-3.188
	c0.57-1.164,1.128-2.367,1.688-3.57c0.529-1.137,1.062-2.259,1.582-3.429c0.547-1.232,1.081-2.514,1.618-3.782
	c0.51-1.204,1.028-2.38,1.529-3.617c0.954-2.357,1.892-4.773,2.812-7.245c0.55-1.478,1.081-3.015,1.619-4.532
	c0.427-1.21,0.862-2.401,1.282-3.635c0.531-1.562,1.047-3.171,1.565-4.772c0.399-1.234,0.8-2.461,1.191-3.718
	c0.513-1.647,1.013-3.328,1.513-5.014c0.371-1.256,0.741-2.516,1.104-3.793c0.499-1.749,0.988-3.519,1.47-5.307
	c0.337-1.249,0.668-2.51,0.998-3.778c0.485-1.865,0.967-3.74,1.434-5.645c0.299-1.217,0.59-2.455,0.882-3.688
	c0.475-2.002,0.948-4.004,1.404-6.046c0.237-1.057,0.461-2.139,0.692-3.206c1.74-8.04,3.342-16.368,4.784-24.977
	c0.092-0.545,0.19-1.077,0.281-1.623c0.406-2.466,0.786-4.973,1.167-7.481c0.169-1.116,0.345-2.224,0.51-3.349
	c0.35-2.398,0.681-4.827,1.008-7.263c0.169-1.257,0.339-2.514,0.502-3.781c0.31-2.421,0.606-4.861,0.893-7.316
	c0.152-1.303,0.301-2.611,0.447-3.923c0.274-2.477,0.54-4.966,0.792-7.475c0.128-1.286,0.248-2.582,0.37-3.877
	c0.245-2.595,0.486-5.193,0.704-7.82c0.091-1.1,0.17-2.216,0.257-3.322c0.224-2.85,0.446-5.702,0.638-8.587
	c0.001-0.007,0.001-0.014,0.001-0.021h0h-72.41c-3.554,64.072-13.709,123.227-29.514,170.224
	c-5.256,15.63-11.035,29.508-17.247,41.547h32.367c1.444,0,2.877-0.121,4.304-0.324c0.462-0.065,0.919-0.188,1.379-0.274
	c0.962-0.182,1.921-0.378,2.875-0.65c0.543-0.155,1.083-0.355,1.624-0.539c0.863-0.294,1.724-0.607,2.579-0.975
	c0.565-0.243,1.128-0.513,1.691-0.787c0.827-0.405,1.649-0.839,2.468-1.311c0.562-0.324,1.123-0.656,1.681-1.011
	c0.818-0.52,1.63-1.087,2.439-1.674c0.54-0.392,1.082-0.775,1.619-1.197c0.844-0.664,1.68-1.388,2.516-2.124
	c0.484-0.427,0.97-0.826,1.451-1.276C2214.264,1139.302,2215.266,1138.275,2216.264,1137.221z"/>
<path style="fill:#4771A1;" d="M2185.876,995.058c-3.172,25.852-7.472,50.09-12.722,72.187
	c11.967-50.324,19.021-111.711,19.021-178.034c0-96.463-14.88-182.572-38.18-239.2c4.101,9.971,7.943,20.852,11.488,32.546h-76.485
	c14.96,59.497,23.054,131.277,23.054,206.654c0,36.46-1.92,72.05-5.567,105.847H2185.876z"/>
<path style="fill:#6295C6;" d="M2165.483,682.557c-3.544-11.694-7.386-22.575-11.488-32.546c-0.159-0.389-0.327-0.752-0.487-1.138
	c-1.179-2.831-2.375-5.602-3.595-8.281c-0.33-0.724-0.671-1.408-1.003-2.121c-1.064-2.277-2.136-4.522-3.23-6.682
	c-0.438-0.865-0.885-1.686-1.328-2.531c-1.01-1.93-2.027-3.833-3.061-5.661c-0.508-0.897-1.023-1.755-1.536-2.628
	c-0.989-1.681-1.985-3.333-2.993-4.919c-0.565-0.888-1.136-1.742-1.708-2.601c-0.977-1.467-1.959-2.898-2.953-4.276
	c-0.614-0.849-1.231-1.672-1.85-2.486c-0.977-1.282-1.96-2.521-2.951-3.716c-0.649-0.783-1.3-1.549-1.956-2.294
	c-0.982-1.115-1.972-2.175-2.967-3.202c-0.68-0.702-1.36-1.398-2.047-2.059c-0.993-0.957-1.996-1.847-3.002-2.717
	c-0.702-0.606-1.402-1.218-2.11-1.781c-1.011-0.805-2.034-1.532-3.058-2.247c-0.717-0.501-1.431-1.021-2.153-1.477
	c-1.042-0.658-2.094-1.223-3.146-1.787c-0.718-0.385-1.431-0.803-2.153-1.143c-1.097-0.517-2.205-0.925-3.314-1.34
	c-0.69-0.257-1.373-0.563-2.067-0.781c-1.23-0.386-2.472-0.642-3.713-0.897c-0.584-0.121-1.161-0.304-1.747-0.395
	c-1.834-0.287-3.679-0.445-5.537-0.445h-39.908c10.868,16.753,20.784,38.158,29.435,63.884c4.055,12.061,7.77,24.857,11.141,38.267
	H2165.483z"/>
<path style="fill:#365777;" d="M2123.115,1180.204c0.359-0.38,0.723-0.723,1.081-1.114c1.367-1.498,2.719-3.096,4.058-4.758
	c0.58-0.718,1.151-1.484,1.725-2.233c0.811-1.056,1.616-2.13,2.414-3.246c0.632-0.883,1.261-1.782,1.886-2.701
	c0.734-1.081,1.461-2.198,2.185-3.328c0.63-0.981,1.262-1.946,1.884-2.965c0.84-1.378,1.666-2.819,2.493-4.263
	c1.015-1.776,2.019-3.607,3.013-5.481c0.579-1.093,1.159-2.174,1.731-3.299c0.712-1.405,1.416-2.851,2.116-4.307
	c0.489-1.016,0.975-2.041,1.458-3.081c0.731-1.576,1.458-3.163,2.175-4.794c0.372-0.847,0.737-1.722,1.105-2.583
	c2.625-6.141,5.15-12.639,7.561-19.491c0.217-0.615,0.436-1.223,0.651-1.844c0.787-2.277,1.563-4.594,2.327-6.945
	c0.18-0.557,0.36-1.122,0.539-1.683c3.459-10.809,6.661-22.349,9.568-34.558c0.023-0.095,0.046-0.188,0.069-0.283
	c5.25-22.097,9.55-46.335,12.722-72.187h-79.391c-5.592,51.822-15.281,99.384-28.628,139.073
	c-8.651,25.725-18.567,47.131-29.435,63.884h39.908c1.629,0,3.246-0.145,4.855-0.365c0.5-0.069,0.997-0.175,1.494-0.264
	c1.134-0.203,2.264-0.455,3.388-0.766c0.539-0.149,1.078-0.303,1.615-0.477c1.175-0.38,2.343-0.828,3.505-1.325
	c0.418-0.178,0.84-0.327,1.255-0.52c1.542-0.715,3.072-1.523,4.59-2.438c0.384-0.231,0.762-0.506,1.144-0.749
	c1.146-0.731,2.287-1.504,3.418-2.346c0.552-0.411,1.101-0.847,1.651-1.284c0.981-0.782,1.955-1.606,2.924-2.47
	c0.546-0.488,1.096-0.967,1.639-1.481C2120.919,1182.481,2122.019,1181.362,2123.115,1180.204z"/>
<path style="fill:#4771A1;" d="M2101.77,889.211c0-100.302-14.532-190.509-37.676-253.025h-63.417
	c0.964,2.679,1.937,5.324,2.872,8.104c22.051,65.574,34.195,152.555,34.195,244.921c0,55.155-4.361,108.347-12.545,156.25h63.845
	C2097.159,998.621,2101.77,945.533,2101.77,889.211z"/>
<path style="fill:#6295C6;" d="M2064.094,636.186L2064.094,636.186c-1.312-3.542-2.653-6.988-4.018-10.349
	c-0.49-1.205-0.998-2.342-1.494-3.523c-0.896-2.132-1.79-4.272-2.707-6.325c-0.593-1.325-1.203-2.582-1.804-3.873
	c-0.849-1.824-1.694-3.657-2.561-5.414c-0.642-1.303-1.3-2.542-1.953-3.807c-0.847-1.644-1.693-3.293-2.555-4.872
	c-0.681-1.249-1.377-2.441-2.069-3.648c-0.857-1.496-1.714-2.989-2.584-4.42c-0.712-1.17-1.434-2.291-2.155-3.416
	c-0.872-1.363-1.747-2.713-2.632-4.01c-0.739-1.082-1.486-2.123-2.233-3.16c-0.892-1.235-1.786-2.446-2.689-3.615
	c-0.759-0.981-1.523-1.933-2.291-2.867c-0.913-1.112-1.832-2.19-2.758-3.234c-0.775-0.875-1.554-1.73-2.339-2.556
	c-0.937-0.989-1.882-1.931-2.83-2.848c-0.789-0.764-1.579-1.519-2.375-2.232c-0.966-0.866-1.941-1.672-2.918-2.464
	c-0.795-0.644-1.588-1.293-2.389-1.887c-1-0.742-2.008-1.409-3.019-2.072c-0.796-0.522-1.589-1.062-2.39-1.535
	c-1.043-0.615-2.096-1.141-3.149-1.672c-0.782-0.395-1.56-0.821-2.348-1.168c-1.113-0.49-2.238-0.875-3.36-1.269
	c-0.741-0.261-1.478-0.569-2.223-0.787c-1.249-0.366-2.509-0.607-3.77-0.853c-0.633-0.124-1.26-0.309-1.896-0.402
	c-1.9-0.278-3.811-0.431-5.734-0.431h-43.195c21.713,14.694,41.274,44.945,57.022,88.71H2064.094z"/>
<path style="fill:#365777;" d="M2025.539,1211.039c0.496-0.527,0.99-1.055,1.482-1.601c1.269-1.409,2.524-2.884,3.771-4.42
	c0.616-0.76,1.228-1.546,1.839-2.338c0.921-1.193,1.835-2.426,2.743-3.687c0.596-0.827,1.196-1.631,1.786-2.488
	c1.284-1.863,2.552-3.801,3.809-5.8c0.683-1.089,1.357-2.223,2.032-3.352c0.703-1.175,1.403-2.367,2.096-3.584
	c0.722-1.266,1.444-2.532,2.155-3.843c0.663-1.221,1.313-2.49,1.967-3.75c1.251-2.411,2.486-4.887,3.703-7.438
	c0.486-1.017,0.971-2.03,1.452-3.068c0.796-1.725,1.586-3.474,2.367-5.258c0.372-0.849,0.737-1.719,1.104-2.581
	c1.623-3.8,3.212-7.715,4.762-11.764c0.155-0.406,0.314-0.8,0.469-1.209c0.844-2.23,1.675-4.507,2.498-6.81
	c0.221-0.621,0.442-1.249,0.662-1.875c2.607-7.419,5.099-15.192,7.464-23.307c0.096-0.33,0.192-0.661,0.288-0.992
	c5.845-20.221,10.912-42.491,15.056-66.407c0-0.002,0-0.004,0.001-0.006l0,0h-63.845c-5.522,32.318-12.766,62.253-21.65,88.67
	c-16.207,48.195-36.851,81.221-59.894,96.815h43.195c1.768,0,3.522-0.161,5.271-0.396c0.48-0.065,0.959-0.146,1.438-0.229
	c1.44-0.246,2.873-0.569,4.297-0.972c0.332-0.094,0.666-0.162,0.997-0.264c1.693-0.523,3.371-1.166,5.041-1.905
	c0.447-0.198,0.891-0.426,1.337-0.64c1.3-0.622,2.592-1.307,3.876-2.058c0.47-0.275,0.943-0.537,1.411-0.829
	c1.604-1,3.198-2.082,4.777-3.28c0.39-0.295,0.772-0.628,1.159-0.935c1.237-0.978,2.466-2.014,3.686-3.112
	c0.551-0.496,1.101-0.997,1.649-1.516C2023.051,1213.615,2024.299,1212.358,2025.539,1211.039z"/>
<path style="fill:#4771A1;" d="M1912.543,1230.946c63.468,0,114.919-153,114.919-341.735c0-188.735-51.451-341.735-114.919-341.735
	c-56.708,0-103.788,122.173-113.183,282.811h2.583c3.82-55.417,13.011-106.436,26.821-147.505
	c19.767-58.781,47.49-91.153,78.062-91.153c30.573,0,58.295,32.372,78.062,91.153c18.594,55.292,28.834,128.603,28.834,206.429
	c0,77.825-10.24,151.136-28.834,206.429c-19.767,58.781-47.49,91.153-78.062,91.153c-30.572,0-58.295-32.372-78.062-91.153
	c-13.81-41.069-23.001-92.088-26.821-147.505h-2.583C1808.755,1108.773,1855.835,1230.946,1912.543,1230.946z"/>
<path style="fill:#365777;" d="M1906.827,1176.51c53.358,0,96.614-128.628,96.614-287.299s-43.256-287.3-96.614-287.3
	c-46.566,0-85.429,97.973-94.572,228.376h33.571c7.719-54.003,26.386-97.245,55.286-97.245c38.958,0,59.341,78.563,59.341,156.169
	c0,77.606-20.383,156.169-59.341,156.169c-28.9,0-47.567-43.242-55.285-97.245h-33.571
	C1821.398,1078.538,1860.261,1176.51,1906.827,1176.51z"/>
<path style="fill:#4771A1;" d="M1901.111,1035.098c27.095,0,49.059-65.315,49.059-145.887s-21.964-145.887-49.059-145.887
	c-20.041,0-37.265,35.753-44.879,86.963h2.136c6.347-22.361,16.956-38.375,32.264-38.375c27.17,0,39.544,50.437,39.544,97.299
	c0,46.862-12.374,97.299-39.544,97.299c-15.308,0-25.916-16.014-32.264-38.375h-2.136
	C1863.846,999.346,1881.07,1035.098,1901.111,1035.098z"/>
<path style="fill:#365777;" d="M1887.216,948.135h-18.071c5.346,17.233,12.981,28.092,21.487,28.092
	c16.162,0,29.263-38.959,29.263-87.016c0-48.058-13.101-87.017-29.263-87.017c-8.506,0-16.141,10.859-21.487,28.093h18.071
	c19.663,0,26.64,31.742,26.64,58.924S1906.879,948.135,1887.216,948.135z"/>
<path style="fill:#8FA6BC;" d="M1903.281,898.24c-0.075,1.185-0.172,2.346-0.276,3.499c0.359-4.004,0.568-8.188,0.568-12.527
	c0-11.209-1.289-21.503-3.43-29.729H625.041c-2.142,8.226-3.43,18.519-3.43,29.729c0,3.089,0.108,6.099,0.293,9.028H1903.281z"/>
<path style="fill:#A9C7E0;" d="M1900.144,859.483L1900.144,859.483c-0.001-0.002-0.002-0.005-0.002-0.007
	c-1.121-4.302-2.476-8.033-4.012-11.019c-0.004-0.01-0.01-0.018-0.016-0.029c-0.471-0.914-0.962-1.742-1.465-2.511
	c-0.114-0.174-0.231-0.33-0.346-0.496c-0.4-0.577-0.811-1.105-1.229-1.585c-0.167-0.191-0.334-0.371-0.502-0.546
	c-0.384-0.399-0.777-0.744-1.173-1.057c-0.19-0.15-0.38-0.306-0.571-0.436c-0.408-0.275-0.824-0.48-1.244-0.662
	c-0.18-0.079-0.357-0.185-0.54-0.246c-0.599-0.199-1.204-0.32-1.821-0.32c-0.002,0-0.003-0.001-0.005-0.001h-0.001H934.448H637.967
	c-0.617,0-1.226,0.121-1.826,0.321c-0.182,0.061-0.357,0.166-0.537,0.245c-0.42,0.182-0.837,0.387-1.247,0.663
	c-0.192,0.129-0.379,0.285-0.568,0.434c-0.398,0.314-0.792,0.661-1.178,1.06c-0.167,0.174-0.333,0.354-0.499,0.543
	c-0.419,0.482-0.831,1.011-1.233,1.59c-0.114,0.164-0.229,0.317-0.342,0.489c-0.506,0.772-1,1.606-1.473,2.526
	c-0.002,0.005-0.005,0.008-0.007,0.013c-1.534,2.984-2.89,6.714-4.012,11.013c-0.001,0.006-0.004,0.01-0.005,0.016h0.001H1900.144z"
	/>
<path style="fill:#768FA3;" d="M934.448,937.853h952.768h0.001c0.535,0,1.062-0.088,1.583-0.237
	c0.174-0.049,0.343-0.141,0.515-0.207c0.344-0.131,0.688-0.271,1.027-0.466c0.201-0.115,0.396-0.264,0.594-0.402
	c0.301-0.208,0.6-0.426,0.894-0.683c0.209-0.183,0.415-0.387,0.621-0.595c0.273-0.274,0.542-0.564,0.808-0.879
	c0.209-0.249,0.417-0.507,0.623-0.78c0.25-0.334,0.497-0.691,0.741-1.061c0.207-0.313,0.413-0.626,0.615-0.965
	c0.227-0.381,0.448-0.793,0.668-1.205c0.204-0.383,0.41-0.755,0.609-1.163c0.198-0.408,0.386-0.85,0.577-1.282
	c0.206-0.466,0.417-0.915,0.615-1.409c0.083-0.208,0.159-0.44,0.241-0.653c0.539-1.398,1.046-2.898,1.52-4.492
	c0.077-0.261,0.16-0.506,0.235-0.771c0.217-0.764,0.42-1.567,0.621-2.37c0.09-0.358,0.183-0.707,0.27-1.072
	c0.192-0.812,0.371-1.651,0.545-2.497c0.078-0.38,0.158-0.756,0.234-1.143c0.17-0.876,0.33-1.772,0.482-2.681
	c0.063-0.377,0.124-0.756,0.185-1.138c0.148-0.949,0.288-1.911,0.416-2.892c0.047-0.352,0.088-0.711,0.131-1.068
	c0.125-1.03,0.245-2.068,0.346-3.129c0.028-0.289,0.049-0.584,0.076-0.875c0.104-1.153,0.201-2.314,0.276-3.499H621.904h-0.001
	c0,0.007,0.001,0.015,0.001,0.022c0.074,1.159,0.17,2.294,0.27,3.422c0.028,0.315,0.051,0.634,0.081,0.946
	c0.1,1.037,0.217,2.052,0.339,3.06c0.046,0.385,0.092,0.772,0.142,1.153c0.126,0.964,0.264,1.91,0.411,2.843
	c0.061,0.391,0.123,0.777,0.188,1.162c0.152,0.906,0.311,1.8,0.481,2.673c0.074,0.385,0.154,0.76,0.232,1.138
	c0.176,0.852,0.356,1.696,0.549,2.513c0.083,0.353,0.174,0.689,0.26,1.035c0.203,0.813,0.408,1.624,0.628,2.397
	c0.074,0.26,0.155,0.499,0.23,0.755c0.493,1.665,1.023,3.233,1.588,4.683c0.06,0.154,0.114,0.323,0.174,0.474
	c0.205,0.511,0.423,0.974,0.637,1.455c0.183,0.415,0.364,0.841,0.553,1.232c0.202,0.418,0.414,0.798,0.622,1.188
	c0.217,0.405,0.432,0.809,0.656,1.184c0.203,0.343,0.412,0.658,0.621,0.975c0.242,0.367,0.486,0.721,0.734,1.052
	c0.206,0.276,0.417,0.537,0.628,0.787c0.263,0.312,0.53,0.599,0.8,0.87c0.208,0.21,0.417,0.417,0.628,0.602
	c0.291,0.255,0.588,0.471,0.885,0.677c0.2,0.139,0.398,0.289,0.6,0.405c0.338,0.194,0.68,0.333,1.024,0.465
	c0.173,0.066,0.343,0.158,0.517,0.208c0.521,0.149,1.049,0.237,1.583,0.237H934.448z"/>
</svg>
